<svg width="19" height="17" viewBox="0 0 19 17" fill="none" xmlns="http://www.w3.org/2000/svg">
<path fill-rule="evenodd" clip-rule="evenodd" d="M8.90317 0.652887C8.6454 0.910737 8.50059 1.26041 8.50059 1.62501C8.50059 1.98961 8.6454 2.33929 8.90317 2.59714L14.806 8.50001L8.90317 14.4029C8.6527 14.6622 8.51411 15.0095 8.51724 15.3701C8.52038 15.7306 8.66498 16.0755 8.91992 16.3304C9.17485 16.5853 9.51972 16.7299 9.88024 16.7331C10.2408 16.7362 10.5881 16.5976 10.8474 16.3471L17.7224 9.47214C17.9802 9.21429 18.125 8.86461 18.125 8.50001C18.125 8.13541 17.9802 7.78574 17.7224 7.52789L10.8474 0.652887C10.5896 0.395114 10.2399 0.250305 9.87529 0.250305C9.51069 0.250305 9.16102 0.395114 8.90317 0.652887ZM0.653168 0.652887C0.395395 0.910737 0.250587 1.26041 0.250587 1.62501C0.250587 1.98961 0.395395 2.33929 0.653168 2.59714L6.55604 8.50001L0.653168 14.4029C0.4027 14.6622 0.264109 15.0095 0.267241 15.3701C0.270374 15.7306 0.414982 16.0755 0.669918 16.3304C0.924854 16.5853 1.26972 16.7299 1.63024 16.7331C1.99076 16.7362 2.33809 16.5976 2.59742 16.3471L9.47242 9.47214C9.73019 9.21429 9.875 8.86461 9.875 8.50001C9.875 8.13541 9.73019 7.78574 9.47242 7.52789L2.59742 0.652887C2.33957 0.395114 1.98989 0.250305 1.62529 0.250305C1.26069 0.250305 0.911018 0.395114 0.653168 0.652887Z" fill="url(#paint0_linear_186_307)"/>
<defs>
<linearGradient id="paint0_linear_186_307" x1="0.769827" y1="16.7331" x2="19.3281" y2="15.8013" gradientUnits="userSpaceOnUse">
<stop stop-color="#950B12"/>
<stop offset="1" stop-color="#E2373F"/>
</linearGradient>
</defs>
</svg>
