<svg width="54" height="54" viewBox="0 0 54 54" fill="none" xmlns="http://www.w3.org/2000/svg">
<path d="M49.1151 2.13892H4.88574C4.15847 2.13892 3.46098 2.42782 2.94672 2.94208C2.43246 3.45634 2.14355 4.15383 2.14355 4.8811V49.1147C2.14355 49.842 2.43246 50.5395 2.94672 51.0537C3.46098 51.568 4.15847 51.8569 4.88574 51.8569H28.6879V32.6067H22.2164V25.1016H28.6879V19.5666C28.6879 13.1456 32.6114 9.64829 38.3404 9.64829C40.2737 9.6414 42.206 9.73998 44.1286 9.9436V16.6556H40.1671C37.0495 16.6556 36.4462 18.1364 36.4462 20.3091V25.1016H43.8754L42.9093 32.6067H36.4462V51.8611H49.1025C49.8294 51.86 50.5262 51.5707 51.0402 51.0567C51.5543 50.5427 51.8435 49.8458 51.8446 49.1189V4.88532C51.8458 4.15951 51.5591 3.46285 51.0474 2.94804C50.5358 2.43323 49.8409 2.14227 49.1151 2.13892Z" fill="#fff"/>
</svg>
