<svg width="48" height="54" viewBox="0 0 48 54" fill="none" xmlns="http://www.w3.org/2000/svg">
<g clip-path="url(#clip0_215_6)">
<path d="M42.1875 3.375H5.0625C2.26758 3.375 0 5.64258 0 8.4375V45.5625C0 48.3574 2.26758 50.625 5.0625 50.625H42.1875C44.9824 50.625 47.25 48.3574 47.25 45.5625V8.4375C47.25 5.64258 44.9824 3.375 42.1875 3.375ZM17.2969 37.5469C11.4645 37.5469 6.75 32.8324 6.75 27C6.75 21.1676 11.4645 16.4531 17.2969 16.4531C20.1445 16.4531 22.5176 17.4867 24.3633 19.2164L21.5051 21.9691C20.7246 21.2203 19.3641 20.3449 17.3074 20.3449C13.7109 20.3449 10.7789 23.3191 10.7789 27.0105C10.7789 30.6914 13.7109 33.6762 17.3074 33.6762C21.484 33.6762 23.0449 30.6703 23.298 29.1305H17.2969V25.5023H27.2531C27.3586 26.0297 27.4219 26.5676 27.4219 27.2531C27.4219 33.2754 23.3824 37.5469 17.2969 37.5469ZM40.5 28.9195H37.4414V31.9781H34.3617V28.9195H31.3031V25.8398H34.3617V22.7812H37.4414V25.8398H40.5V28.9195Z" fill="#fff"/>
</g>
<defs>
<clipPath id="clip0_215_6">
<rect width="47.25" height="54" fill="white"/>
</clipPath>
</defs>
</svg>
