<svg width="20" height="20" viewBox="0 0 20 20" fill="none" xmlns="http://www.w3.org/2000/svg">
<path d="M8.00003 14.0001C8.00003 14.2653 7.15006 14.8126 7.00003 15.0001C6.85 15.1876 7.2122 15.0001 7.00003 15.0001C6.78786 15.0001 6.15006 15.1876 6.00003 15.0001C5.85 14.8126 6.00003 14.2653 6.00003 14.0001C6.00003 13.7349 5.85 13.1876 6.00003 13.0001C6.15006 12.8126 6.78786 13.0001 7.00003 13.0001C6.85 12.8126 7.2122 13.0001 7.00003 13.0001C7.15006 13.1876 8.00003 13.7349 8.00003 14.0001ZM11 14.0001C11 14.2653 11.1501 14.8126 11 15.0001C10.85 15.1876 10.2122 15.0001 10 15.0001C9.78786 15.0001 9.15006 15.1876 9.00003 15.0001C8.85 14.8126 9.00003 14.2653 9.00003 14.0001C9.00003 13.7349 8.85 13.1876 9.00003 13.0001C9.15006 12.8126 9.78786 13.0001 10 13.0001C10.2122 13.0001 10.85 12.8126 11 13.0001C11.1501 13.1876 11 13.7349 11 14.0001ZM13 15.0001C13.2122 15.0001 13.85 15.1876 14 15.0001C14.1501 14.8126 14 14.2653 14 14.0001C14 13.7349 14.1501 13.1876 14 13.0001C13.85 12.8126 13.2122 13.0001 13 13.0001C12.7879 13.0001 13.1501 12.8126 13 13.0001C12.85 13.1876 12 13.7349 12 14.0001C12 14.2653 12.85 14.8126 13 15.0001C13.1501 15.1876 12.7879 15.0001 13 15.0001Z" fill="#192F6C"/>
<path fill-rule="evenodd" clip-rule="evenodd" d="M4.00008 7V8C3.81003 8.0134 4.16919 7.97656 4.00008 8C3.24659 8.10047 2.50408 8.49684 2.00008 9C1.49608 9.504 1.10138 10.2465 1.00008 11C0.902124 11.7259 1.00008 11.8555 1.00008 13C1.00008 14.1445 0.902124 15.2741 1.00008 16C1.10054 16.7535 1.49692 17.496 2.00008 18C2.50408 18.504 3.24659 18.8979 4.00008 19C4.72594 19.0971 5.85561 19 7.00008 19H13.0001C14.1445 19 15.2742 19.0971 16.0001 19C16.7536 18.8979 17.4961 18.504 18.0001 18C18.5041 17.496 18.8979 16.7535 19.0001 16C19.0972 15.2741 19.0001 14.1445 19.0001 13C19.0001 11.8555 19.0972 11.7259 19.0001 11C18.8979 10.2465 18.5041 9.504 18.0001 9C17.4961 8.496 16.7536 8.1013 16.0001 8C15.8215 7.97648 16.1798 8.0122 16.0001 8V7C16.0001 5.50122 15.0599 4.0598 14.0001 3C12.9403 1.9402 11.4989 1 10.0001 1C8.5013 1 7.05988 1.9402 6.00008 3C4.94028 4.0598 4.00008 5.50122 4.00008 7ZM10.0001 2C8.83436 2 7.82437 3.17571 7.00008 4C6.17579 4.82429 6.00008 5.83428 6.00008 7V8C6.31236 7.99749 6.64594 8 7.00008 8H13.0001C13.3542 8 13.6878 7.99749 14.0001 8V7C14.0001 4.57209 12.428 2 10.0001 2ZM4.00008 9C3.38557 9.08288 3.23198 9.76893 3.00008 10C2.76817 10.2319 2.08296 10.3847 2.00008 11C1.91552 11.6321 2.00008 11.7986 2.00008 13C2.00008 14.2014 1.91552 15.3671 2.00008 16C2.08296 16.6145 2.76901 16.7681 3.00008 17C3.23198 17.2319 3.38473 17.9171 4.00008 18C4.63133 18.0846 5.79868 18 7.00008 18H13.0001C14.2015 18 15.3671 18.0846 16.0001 18C16.6146 17.9171 16.7682 17.2311 17.0001 17C17.232 16.7681 17.9172 16.6153 18.0001 16C18.0846 15.3679 18.0001 14.2014 18.0001 13C18.0001 11.7986 18.0846 11.6321 18.0001 11C17.9172 10.3855 17.2311 10.2319 17.0001 10C16.7682 9.76809 16.6154 9.08288 16.0001 9C15.368 8.91544 14.2015 9 13.0001 9H7.00008C5.79868 9 4.63217 8.91544 4.00008 9Z" fill="#192F6C"/>
</svg>
