<svg width="40" height="40" viewBox="0 0 40 40" fill="none" xmlns="http://www.w3.org/2000/svg">
<path opacity="0.8" d="M17.7857 26L26 19.5L17.7857 13V17.875H3V21.125H17.7857V26Z" fill="url(#paint0_linear_83_14)"/>
<path opacity="0.8" d="M21.7689 5.00006C19.768 4.99459 17.7858 5.3802 15.9373 6.13454C14.0888 6.88887 12.4106 7.99694 11 9.39456L13.3927 11.751C15.6297 9.54788 18.6046 8.33301 21.7689 8.33301C24.9332 8.33301 27.908 9.54788 30.1451 11.751C32.3821 13.954 33.6157 16.8837 33.6157 20C33.6157 23.1163 32.3821 26.046 30.1451 28.2491C27.908 30.4522 24.9332 31.667 21.7689 31.667C18.6046 31.667 15.6297 30.4522 13.3927 28.2491L11 30.6055C13.875 33.4385 17.6993 35 21.7689 35C25.8385 35 29.6628 33.4385 32.5378 30.6055C35.4144 27.7742 37 24.0079 37 20C37 15.9921 35.4144 12.2259 32.5378 9.39456C31.1272 7.99694 29.449 6.88887 27.6005 6.13454C25.752 5.3802 23.7698 4.99459 21.7689 5.00006Z" fill="url(#paint1_linear_83_14)"/>
<defs>
<linearGradient id="paint0_linear_83_14" x1="25.3319" y1="26" x2="1.55132" y2="24.0519" gradientUnits="userSpaceOnUse">
<stop stop-color="#950B12"/>
<stop offset="1" stop-color="#E2373F"/>
</linearGradient>
<linearGradient id="paint1_linear_83_14" x1="36.2447" y1="35" x2="9.22547" y2="33.9158" gradientUnits="userSpaceOnUse">
<stop stop-color="#950B12"/>
<stop offset="1" stop-color="#E2373F"/>
</linearGradient>
</defs>
</svg>
