<svg width="48" height="54" viewBox="0 0 48 54" fill="none" xmlns="http://www.w3.org/2000/svg">
<g clip-path="url(#clip0_215_8)">
<path d="M42.1875 3.375H5.0625C2.26758 3.375 0 5.64258 0 8.4375V45.5625C0 48.3574 2.26758 50.625 5.0625 50.625H42.1875C44.9824 50.625 47.25 48.3574 47.25 45.5625V8.4375C47.25 5.64258 44.9824 3.375 42.1875 3.375ZM37.0301 20.1234C37.0512 20.4188 37.0512 20.7246 37.0512 21.0199C37.0512 30.1641 30.0902 40.7004 17.3707 40.7004C13.4473 40.7004 9.80859 39.5613 6.75 37.5996C7.30898 37.6629 7.84688 37.684 8.41641 37.684C11.6543 37.684 14.6285 36.5871 17.0016 34.7309C13.9641 34.6676 11.4117 32.6742 10.5363 29.932C11.6016 30.0902 12.5613 30.0902 13.6582 29.8055C10.4941 29.1621 8.12109 26.3777 8.12109 23.0133V22.9289C9.03867 23.4457 10.1145 23.7621 11.243 23.8043C10.2942 23.1732 9.51643 22.3171 8.97905 21.3122C8.44168 20.3074 8.16142 19.1852 8.16328 18.0457C8.16328 16.759 8.50078 15.5777 9.10195 14.5547C12.5086 18.7523 17.6238 21.4945 23.3613 21.7898C22.3805 17.0965 25.8926 13.2891 30.1113 13.2891C32.1047 13.2891 33.8977 14.1223 35.1633 15.4723C36.7242 15.177 38.2219 14.5969 39.5508 13.8059C39.034 15.409 37.9477 16.759 36.5133 17.6133C37.9055 17.4656 39.2555 17.0754 40.5 16.5375C39.5613 17.9191 38.3801 19.1426 37.0301 20.1234Z" fill="#fff"/>
</g>
<defs>
<clipPath id="clip0_215_8">
<rect width="47.25" height="54" fill="white"/>
</clipPath>
</defs>
</svg>
