<svg width="20" height="20" viewBox="0 0 20 20" fill="none" xmlns="http://www.w3.org/2000/svg">
<path d="M18.9999 17C17.9208 15.1523 16.0196 13.7999 13.9999 13C15.0043 12.2651 15.6256 11.1691 15.9999 10C16.3743 8.83087 16.397 7.16199 15.9999 6C15.6029 4.83801 15.0184 3.71618 13.9999 3C12.9815 2.28382 12.2554 2 10.9999 2C9.74447 2 8.01842 2.28382 6.99994 3C5.98145 3.71618 5.39695 4.83801 4.99994 6C4.60292 7.16199 4.6256 8.83087 4.99994 10C5.37428 11.1691 5.99556 12.2651 6.99994 13C4.98025 13.7999 3.07905 15.1523 1.99994 17C1.93307 17.1049 2.01955 16.878 1.99994 17C1.96919 16.8802 1.98032 17.122 1.99994 17C2.03068 17.1198 1.92371 17.9014 1.99994 18C1.89031 17.9382 2.07617 18.0986 1.99994 18C2.10957 18.0618 2.87428 17.9848 2.99994 18C2.87818 18.0339 3.12559 18.0152 2.99994 18C3.1217 17.9661 3.90137 18.0775 3.99994 18C3.94019 18.1089 4.0985 17.9225 3.99994 18C5.42611 15.595 8.20661 14 10.9999 14C13.7933 14 15.5738 15.5958 16.9999 18C17.1294 18.2031 17.7621 17.9419 17.9999 18C18.2378 18.0581 18.7876 18.1197 18.9999 18C19.2122 17.8803 18.9327 17.23 18.9999 17C19.1156 17.2109 19.0672 16.77 18.9999 17ZM5.99994 8C5.99994 7.21027 6.55022 6.65664 6.99994 6C7.44966 5.34336 8.25208 4.30222 8.99994 4C9.7478 3.69778 10.206 3.84593 10.9999 4C11.7939 4.15407 12.4276 4.44158 12.9999 5C13.5723 5.55842 14.842 6.22544 14.9999 7C15.1579 7.77456 14.3097 8.27038 13.9999 9C13.6902 9.72962 13.673 10.5612 12.9999 11C12.3269 11.4388 11.8094 12 10.9999 12C9.91485 11.9988 8.76721 11.7486 7.99994 11C7.23266 10.2514 6.00119 9.05862 5.99994 8Z" fill="#192F6C"/>
</svg>
